<?xml version="1.0" encoding="UTF-8"?>
<svg xmlns="http://www.w3.org/2000/svg" xmlns:xlink="http://www.w3.org/1999/xlink" width="150px" height="150px" viewBox="0 0 150 150" version="1.1">
<defs>
<clipPath id="clip1">
  <path d="M 25.027344 65.050781 L 125.007812 65.050781 L 125.007812 84.984375 L 25.027344 84.984375 Z M 25.027344 65.050781 "/>
</clipPath>
<clipPath id="clip2">
  <path d="M 25.027344 65.050781 L 125 65.050781 L 125 84.984375 L 25.027344 84.984375 Z M 25.027344 65.050781 "/>
</clipPath>
<clipPath id="clip3">
  <path d="M 30.558594 70.5625 L 119.476562 70.5625 L 119.476562 79.472656 L 30.558594 79.472656 Z M 30.558594 70.5625 "/>
</clipPath>
</defs>
<g id="surface1">
<rect x="0" y="0" width="150" height="150" style="fill:rgb(2.352941%,25.490196%,23.921569%);fill-opacity:1;stroke:none;"/>
<g clip-path="url(#clip1)" clip-rule="nonzero">
<path style=" stroke:none;fill-rule:nonzero;fill:rgb(93.72549%,85.098039%,80%);fill-opacity:1;" d="M 25.027344 85.003906 L 25.027344 65.035156 L 125.007812 65.035156 L 125.007812 85.003906 Z M 25.027344 85.003906 "/>
</g>
<g clip-path="url(#clip2)" clip-rule="nonzero">
<path style=" stroke:none;fill-rule:nonzero;fill:rgb(2.352941%,25.490196%,23.921569%);fill-opacity:1;" d="M 25.949219 84.082031 L 25.949219 65.953125 L 124.085938 65.953125 L 124.085938 84.082031 Z M 25.949219 84.082031 "/>
</g>
<path style=" stroke:none;fill-rule:nonzero;fill:rgb(93.72549%,85.098039%,80%);fill-opacity:1;" d="M 27.792969 82.238281 L 27.792969 67.796875 L 122.242188 67.796875 L 122.242188 82.238281 Z M 27.792969 82.238281 "/>
<g clip-path="url(#clip3)" clip-rule="nonzero">
<path style=" stroke:none;fill-rule:nonzero;fill:rgb(2.352941%,25.490196%,23.921569%);fill-opacity:1;" d="M 30.5625 78.863281 L 30.5625 74.488281 L 31.648438 74.488281 L 31.648438 79.261719 C 31.59375 79.28125 31.523438 79.300781 31.4375 79.324219 C 31.347656 79.34375 31.25 79.355469 31.144531 79.355469 C 30.949219 79.355469 30.804688 79.316406 30.707031 79.234375 C 30.609375 79.15625 30.5625 79.03125 30.5625 78.863281 Z M 31.648438 71.652344 L 31.648438 75.378906 L 30.5625 75.378906 L 30.5625 71.253906 C 30.605469 71.234375 30.675781 71.214844 30.769531 71.191406 C 30.859375 71.171875 30.957031 71.160156 31.066406 71.160156 C 31.257812 71.160156 31.40625 71.199219 31.503906 71.273438 C 31.601562 71.347656 31.648438 71.472656 31.648438 71.652344 Z M 35.785156 78.863281 L 35.785156 74.488281 L 36.871094 74.488281 L 36.871094 79.261719 C 36.820312 79.28125 36.75 79.300781 36.660156 79.324219 C 36.570312 79.34375 36.476562 79.355469 36.367188 79.355469 C 36.175781 79.355469 36.027344 79.316406 35.929688 79.234375 C 35.832031 79.15625 35.785156 79.03125 35.785156 78.863281 Z M 36.871094 71.652344 L 36.871094 75.378906 L 35.785156 75.378906 L 35.785156 71.253906 C 35.828125 71.234375 35.898438 71.214844 35.992188 71.191406 C 36.085938 71.171875 36.183594 71.160156 36.289062 71.160156 C 36.484375 71.160156 36.628906 71.199219 36.726562 71.273438 C 36.824219 71.347656 36.871094 71.472656 36.871094 71.652344 Z M 36.355469 74.753906 L 36.355469 75.65625 L 31.210938 75.65625 L 31.210938 74.753906 Z M 44.734375 76.226562 C 44.734375 76.878906 44.613281 77.449219 44.363281 77.9375 C 44.117188 78.421875 43.769531 78.796875 43.316406 79.0625 C 42.867188 79.328125 42.335938 79.460938 41.726562 79.460938 C 41.117188 79.460938 40.582031 79.328125 40.125 79.0625 C 39.671875 78.796875 39.320312 78.421875 39.074219 77.9375 C 38.828125 77.449219 38.703125 76.878906 38.703125 76.226562 C 38.703125 75.5625 38.828125 74.988281 39.078125 74.507812 C 39.332031 74.027344 39.683594 73.652344 40.140625 73.386719 C 40.597656 73.125 41.125 72.992188 41.726562 72.992188 C 42.328125 72.992188 42.851562 73.125 43.304688 73.386719 C 43.753906 73.652344 44.105469 74.027344 44.355469 74.507812 C 44.609375 74.988281 44.734375 75.5625 44.734375 76.226562 Z M 41.726562 73.867188 C 41.132812 73.867188 40.664062 74.074219 40.3125 74.496094 C 39.964844 74.914062 39.789062 75.492188 39.789062 76.226562 C 39.789062 76.96875 39.960938 77.546875 40.300781 77.964844 C 40.640625 78.378906 41.117188 78.585938 41.726562 78.585938 C 42.328125 78.585938 42.796875 78.375 43.136719 77.953125 C 43.476562 77.535156 43.648438 76.960938 43.648438 76.226562 C 43.648438 75.492188 43.476562 74.914062 43.136719 74.496094 C 42.796875 74.074219 42.328125 73.867188 41.726562 73.867188 Z M 51.324219 75.046875 L 51.324219 76.570312 L 50.265625 76.570312 L 50.265625 75.125 C 50.265625 74.691406 50.136719 74.375 49.886719 74.171875 C 49.632812 73.96875 49.300781 73.867188 48.886719 73.867188 C 48.613281 73.867188 48.347656 73.910156 48.089844 74 C 47.835938 74.085938 47.617188 74.1875 47.441406 74.304688 L 47.441406 76.570312 L 46.378906 76.570312 L 46.378906 74.355469 C 46.378906 74.179688 46.417969 74.027344 46.492188 73.90625 C 46.566406 73.78125 46.699219 73.664062 46.882812 73.546875 C 47.121094 73.398438 47.425781 73.265625 47.789062 73.15625 C 48.160156 73.046875 48.527344 72.992188 48.898438 72.992188 C 49.351562 72.992188 49.746094 73.058594 50.09375 73.195312 C 50.4375 73.332031 50.695312 73.519531 50.863281 73.757812 C 50.914062 73.8125 50.957031 73.859375 50.996094 73.90625 C 51.03125 73.949219 51.066406 74.007812 51.101562 74.078125 C 51.164062 74.183594 51.214844 74.320312 51.257812 74.488281 C 51.304688 74.65625 51.324219 74.84375 51.324219 75.046875 Z M 55.210938 75.074219 L 55.210938 76.570312 L 54.148438 76.570312 L 54.148438 75.125 C 54.148438 74.691406 54.027344 74.375 53.777344 74.171875 C 53.53125 73.96875 53.199219 73.867188 52.785156 73.867188 C 52.476562 73.867188 52.175781 73.929688 51.886719 74.058594 C 51.601562 74.1875 51.34375 74.371094 51.113281 74.609375 L 50.6875 73.839844 C 50.917969 73.609375 51.21875 73.410156 51.589844 73.242188 C 51.960938 73.074219 52.386719 72.992188 52.863281 72.992188 C 53.339844 72.992188 53.753906 73.066406 54.101562 73.214844 C 54.453125 73.367188 54.726562 73.597656 54.917969 73.90625 C 55.113281 74.214844 55.210938 74.605469 55.210938 75.074219 Z M 46.378906 78.878906 L 46.378906 75.867188 L 47.441406 75.867188 L 47.441406 79.261719 C 47.394531 79.28125 47.332031 79.300781 47.242188 79.324219 C 47.152344 79.34375 47.054688 79.355469 46.949219 79.355469 C 46.765625 79.355469 46.621094 79.316406 46.527344 79.242188 C 46.429688 79.167969 46.378906 79.046875 46.378906 78.878906 Z M 50.265625 78.878906 L 50.265625 75.867188 L 51.324219 75.867188 L 51.324219 79.261719 C 51.28125 79.28125 51.210938 79.300781 51.117188 79.324219 C 51.027344 79.34375 50.933594 79.355469 50.835938 79.355469 C 50.640625 79.355469 50.496094 79.316406 50.402344 79.242188 C 50.3125 79.167969 50.265625 79.046875 50.265625 78.878906 Z M 54.148438 78.878906 L 54.148438 75.867188 L 55.210938 75.867188 L 55.210938 79.261719 C 55.167969 79.28125 55.097656 79.300781 55.003906 79.324219 C 54.910156 79.34375 54.816406 79.355469 54.71875 79.355469 C 54.527344 79.355469 54.382812 79.316406 54.289062 79.242188 C 54.195312 79.167969 54.148438 79.046875 54.148438 78.878906 Z M 62.035156 76.277344 L 57.582031 76.902344 L 57.527344 76.066406 L 61.53125 75.523438 C 61.496094 75.035156 61.328125 74.636719 61.027344 74.320312 C 60.730469 74.007812 60.3125 73.851562 59.78125 73.851562 C 59.234375 73.851562 58.78125 74.046875 58.425781 74.441406 C 58.066406 74.835938 57.886719 75.398438 57.886719 76.132812 L 57.886719 76.425781 C 57.949219 77.132812 58.179688 77.667969 58.585938 78.035156 C 58.984375 78.402344 59.535156 78.585938 60.234375 78.585938 C 60.605469 78.585938 60.941406 78.523438 61.242188 78.402344 C 61.542969 78.277344 61.78125 78.144531 61.957031 78.003906 C 62.054688 78.066406 62.132812 78.136719 62.191406 78.21875 C 62.246094 78.304688 62.277344 78.402344 62.277344 78.507812 C 62.277344 78.675781 62.179688 78.832031 61.992188 78.976562 C 61.800781 79.121094 61.550781 79.242188 61.234375 79.328125 C 60.921875 79.417969 60.570312 79.460938 60.179688 79.460938 C 59.5 79.460938 58.910156 79.335938 58.410156 79.089844 C 57.910156 78.84375 57.527344 78.472656 57.257812 77.980469 C 56.988281 77.492188 56.851562 76.894531 56.851562 76.1875 C 56.851562 75.683594 56.925781 75.234375 57.074219 74.839844 C 57.21875 74.445312 57.421875 74.113281 57.683594 73.839844 C 57.941406 73.566406 58.253906 73.355469 58.617188 73.207031 C 58.976562 73.0625 59.371094 72.992188 59.796875 72.992188 C 60.335938 72.992188 60.8125 73.105469 61.222656 73.335938 C 61.632812 73.566406 61.957031 73.886719 62.191406 74.296875 C 62.425781 74.707031 62.539062 75.179688 62.539062 75.707031 C 62.539062 75.902344 62.496094 76.042969 62.410156 76.125 C 62.320312 76.210938 62.195312 76.261719 62.035156 76.277344 Z M 64.265625 78.707031 L 64.265625 74.4375 L 65.339844 74.4375 L 65.339844 79.183594 C 65.304688 79.191406 65.238281 79.210938 65.140625 79.242188 C 65.042969 79.273438 64.945312 79.289062 64.847656 79.289062 C 64.671875 79.289062 64.53125 79.234375 64.421875 79.121094 C 64.316406 79.011719 64.265625 78.875 64.265625 78.707031 Z M 65.339844 71.332031 L 65.339844 76 L 64.265625 75.988281 L 64.265625 71.808594 C 64.265625 71.632812 64.316406 71.492188 64.421875 71.386719 C 64.53125 71.28125 64.671875 71.226562 64.847656 71.226562 C 64.945312 71.226562 65.042969 71.242188 65.140625 71.265625 C 65.238281 71.292969 65.304688 71.316406 65.339844 71.332031 Z M 68.546875 75.601562 L 64.847656 75.601562 L 64.847656 74.699219 L 68.839844 74.699219 C 68.867188 74.738281 68.890625 74.792969 68.917969 74.875 C 68.945312 74.953125 68.957031 75.035156 68.957031 75.125 C 68.957031 75.265625 68.921875 75.382812 68.851562 75.46875 C 68.78125 75.558594 68.679688 75.601562 68.546875 75.601562 Z M 69.023438 79.289062 L 64.847656 79.289062 L 64.847656 78.386719 L 69.316406 78.386719 C 69.34375 78.421875 69.371094 78.476562 69.394531 78.550781 C 69.421875 78.628906 69.4375 78.714844 69.4375 78.8125 C 69.4375 78.953125 69.402344 79.066406 69.328125 79.15625 C 69.257812 79.246094 69.15625 79.289062 69.023438 79.289062 Z M 68.957031 72.140625 L 64.847656 72.140625 L 64.847656 71.226562 L 69.25 71.226562 C 69.277344 71.261719 69.304688 71.320312 69.328125 71.398438 C 69.355469 71.480469 69.371094 71.5625 69.371094 71.652344 C 69.371094 71.792969 69.335938 71.910156 69.261719 72 C 69.191406 72.09375 69.089844 72.140625 68.957031 72.140625 Z M 75.441406 77.65625 C 75.441406 78.222656 75.234375 78.664062 74.820312 78.984375 C 74.402344 79.300781 73.804688 79.460938 73.015625 79.460938 C 72.34375 79.460938 71.796875 79.355469 71.371094 79.148438 C 70.949219 78.941406 70.734375 78.714844 70.734375 78.46875 C 70.734375 78.359375 70.761719 78.257812 70.820312 78.152344 C 70.878906 78.054688 70.964844 77.972656 71.082031 77.910156 C 71.320312 78.078125 71.597656 78.234375 71.914062 78.375 C 72.234375 78.515625 72.597656 78.585938 73.003906 78.585938 C 73.921875 78.585938 74.382812 78.277344 74.382812 77.65625 C 74.382812 77.402344 74.304688 77.191406 74.148438 77.027344 C 73.996094 76.863281 73.765625 76.746094 73.46875 76.675781 L 72.367188 76.386719 C 71.828125 76.253906 71.433594 76.046875 71.1875 75.765625 C 70.9375 75.488281 70.816406 75.144531 70.816406 74.726562 C 70.816406 74.257812 71.003906 73.851562 71.386719 73.507812 C 71.765625 73.164062 72.34375 72.992188 73.121094 72.992188 C 73.539062 72.992188 73.898438 73.03125 74.210938 73.113281 C 74.519531 73.199219 74.757812 73.3125 74.929688 73.445312 C 75.105469 73.585938 75.191406 73.734375 75.191406 73.890625 C 75.191406 74.007812 75.160156 74.109375 75.101562 74.195312 C 75.046875 74.285156 74.96875 74.351562 74.871094 74.394531 C 74.765625 74.324219 74.632812 74.246094 74.464844 74.164062 C 74.304688 74.078125 74.113281 74.007812 73.890625 73.949219 C 73.671875 73.894531 73.425781 73.867188 73.160156 73.867188 C 72.773438 73.867188 72.460938 73.941406 72.21875 74.089844 C 71.980469 74.242188 71.863281 74.453125 71.863281 74.726562 C 71.863281 74.921875 71.929688 75.09375 72.066406 75.238281 C 72.203125 75.382812 72.421875 75.492188 72.722656 75.5625 L 73.640625 75.789062 C 74.242188 75.929688 74.691406 76.152344 74.992188 76.457031 C 75.292969 76.761719 75.441406 77.164062 75.441406 77.65625 Z M 81.371094 77.65625 C 81.371094 78.222656 81.160156 78.664062 80.746094 78.984375 C 80.332031 79.300781 79.730469 79.460938 78.941406 79.460938 C 78.269531 79.460938 77.722656 79.355469 77.300781 79.148438 C 76.875 78.941406 76.664062 78.714844 76.664062 78.46875 C 76.664062 78.359375 76.691406 78.257812 76.746094 78.152344 C 76.804688 78.054688 76.890625 77.972656 77.007812 77.910156 C 77.246094 78.078125 77.523438 78.234375 77.84375 78.375 C 78.160156 78.515625 78.523438 78.585938 78.929688 78.585938 C 79.847656 78.585938 80.308594 78.277344 80.308594 77.65625 C 80.308594 77.402344 80.230469 77.191406 80.074219 77.027344 C 79.921875 76.863281 79.695312 76.746094 79.394531 76.675781 L 78.292969 76.386719 C 77.753906 76.253906 77.359375 76.046875 77.113281 75.765625 C 76.867188 75.488281 76.742188 75.144531 76.742188 74.726562 C 76.742188 74.257812 76.933594 73.851562 77.3125 73.507812 C 77.691406 73.164062 78.269531 72.992188 79.050781 72.992188 C 79.464844 72.992188 79.828125 73.03125 80.136719 73.113281 C 80.445312 73.199219 80.6875 73.3125 80.859375 73.445312 C 81.03125 73.585938 81.117188 73.734375 81.117188 73.890625 C 81.117188 74.007812 81.089844 74.109375 81.03125 74.195312 C 80.972656 74.285156 80.898438 74.351562 80.800781 74.394531 C 80.695312 74.324219 80.558594 74.246094 80.394531 74.164062 C 80.230469 74.078125 80.039062 74.007812 79.816406 73.949219 C 79.597656 73.894531 79.355469 73.867188 79.089844 73.867188 C 78.699219 73.867188 78.386719 73.941406 78.148438 74.089844 C 77.910156 74.242188 77.789062 74.453125 77.789062 74.726562 C 77.789062 74.921875 77.859375 75.09375 77.992188 75.238281 C 78.132812 75.382812 78.351562 75.492188 78.652344 75.5625 L 79.566406 75.789062 C 80.167969 75.929688 80.617188 76.152344 80.917969 76.457031 C 81.21875 76.761719 81.371094 77.164062 81.371094 77.65625 Z M 87.8125 76.277344 L 83.355469 76.902344 L 83.304688 76.066406 L 87.308594 75.523438 C 87.273438 75.035156 87.105469 74.636719 86.804688 74.320312 C 86.503906 74.007812 86.085938 73.851562 85.558594 73.851562 C 85.007812 73.851562 84.554688 74.046875 84.199219 74.441406 C 83.839844 74.835938 83.660156 75.398438 83.660156 76.132812 L 83.660156 76.425781 C 83.722656 77.132812 83.957031 77.667969 84.359375 78.035156 C 84.757812 78.402344 85.308594 78.585938 86.007812 78.585938 C 86.378906 78.585938 86.714844 78.523438 87.015625 78.402344 C 87.316406 78.277344 87.554688 78.144531 87.730469 78.003906 C 87.828125 78.066406 87.90625 78.136719 87.964844 78.21875 C 88.023438 78.304688 88.050781 78.402344 88.050781 78.507812 C 88.050781 78.675781 87.957031 78.832031 87.765625 78.976562 C 87.574219 79.121094 87.324219 79.242188 87.011719 79.328125 C 86.695312 79.417969 86.34375 79.460938 85.953125 79.460938 C 85.273438 79.460938 84.683594 79.335938 84.1875 79.089844 C 83.6875 78.84375 83.300781 78.472656 83.03125 77.980469 C 82.761719 77.492188 82.625 76.894531 82.625 76.1875 C 82.625 75.683594 82.699219 75.234375 82.847656 74.839844 C 82.992188 74.445312 83.195312 74.113281 83.457031 73.839844 C 83.714844 73.566406 84.027344 73.355469 84.390625 73.207031 C 84.753906 73.0625 85.144531 72.992188 85.570312 72.992188 C 86.109375 72.992188 86.585938 73.105469 86.996094 73.335938 C 87.40625 73.566406 87.730469 73.886719 87.964844 74.296875 C 88.199219 74.707031 88.316406 75.179688 88.316406 75.707031 C 88.316406 75.902344 88.269531 76.042969 88.183594 76.125 C 88.09375 76.210938 87.96875 76.261719 87.8125 76.277344 Z M 95.15625 75.246094 L 95.15625 76.597656 L 94.097656 76.597656 L 94.097656 75.296875 C 94.097656 74.804688 93.957031 74.441406 93.679688 74.210938 C 93.402344 73.980469 93.027344 73.867188 92.558594 73.867188 C 92.203125 73.867188 91.890625 73.910156 91.617188 74 C 91.34375 74.085938 91.109375 74.1875 90.914062 74.304688 L 90.914062 76.597656 L 89.851562 76.597656 L 89.851562 74.355469 C 89.851562 74.171875 89.890625 74.019531 89.96875 73.898438 C 90.042969 73.777344 90.171875 73.664062 90.355469 73.546875 C 90.585938 73.414062 90.890625 73.289062 91.273438 73.167969 C 91.652344 73.050781 92.082031 72.992188 92.558594 72.992188 C 93.363281 72.992188 93.996094 73.171875 94.460938 73.539062 C 94.925781 73.90625 95.15625 74.476562 95.15625 75.246094 Z M 89.851562 78.878906 L 89.851562 75.867188 L 90.914062 75.867188 L 90.914062 79.261719 C 90.871094 79.28125 90.804688 79.300781 90.714844 79.324219 C 90.625 79.34375 90.53125 79.355469 90.421875 79.355469 C 90.238281 79.355469 90.097656 79.316406 90 79.242188 C 89.902344 79.167969 89.851562 79.046875 89.851562 78.878906 Z M 94.097656 78.878906 L 94.097656 75.867188 L 95.15625 75.867188 L 95.15625 79.261719 C 95.113281 79.28125 95.042969 79.300781 94.953125 79.324219 C 94.859375 79.34375 94.765625 79.355469 94.667969 79.355469 C 94.472656 79.355469 94.328125 79.316406 94.238281 79.242188 C 94.144531 79.167969 94.097656 79.046875 94.097656 78.878906 Z M 97.160156 77.683594 L 97.160156 75.789062 L 98.21875 75.789062 L 98.21875 77.617188 C 98.21875 77.972656 98.320312 78.222656 98.523438 78.367188 C 98.726562 78.511719 99.007812 78.585938 99.359375 78.585938 C 99.511719 78.585938 99.679688 78.558594 99.863281 78.507812 C 100.050781 78.453125 100.203125 78.390625 100.328125 78.320312 C 100.382812 78.375 100.429688 78.441406 100.472656 78.519531 C 100.519531 78.597656 100.539062 78.691406 100.539062 78.796875 C 100.539062 78.992188 100.425781 79.152344 100.195312 79.277344 C 99.964844 79.398438 99.648438 79.460938 99.242188 79.460938 C 98.621094 79.460938 98.121094 79.324219 97.734375 79.050781 C 97.351562 78.777344 97.160156 78.320312 97.160156 77.683594 Z M 100.117188 74.171875 L 97.703125 74.171875 L 97.703125 73.296875 L 100.394531 73.296875 C 100.421875 73.332031 100.449219 73.386719 100.472656 73.46875 C 100.5 73.546875 100.515625 73.632812 100.515625 73.71875 C 100.515625 73.859375 100.480469 73.972656 100.40625 74.050781 C 100.335938 74.132812 100.238281 74.171875 100.117188 74.171875 Z M 98.21875 71.769531 L 98.21875 76.1875 L 97.160156 76.1875 L 97.160156 71.386719 C 97.203125 71.367188 97.273438 71.347656 97.363281 71.324219 C 97.457031 71.304688 97.558594 71.292969 97.664062 71.292969 C 97.847656 71.292969 97.988281 71.332031 98.078125 71.40625 C 98.171875 71.480469 98.21875 71.601562 98.21875 71.769531 Z M 101.984375 71.226562 C 101.984375 71.042969 102.050781 70.882812 102.183594 70.753906 C 102.316406 70.628906 102.480469 70.5625 102.675781 70.5625 C 102.878906 70.5625 103.042969 70.628906 103.167969 70.753906 C 103.289062 70.882812 103.351562 71.042969 103.351562 71.226562 C 103.351562 71.414062 103.289062 71.570312 103.167969 71.695312 C 103.042969 71.824219 102.878906 71.890625 102.675781 71.890625 C 102.480469 71.890625 102.316406 71.824219 102.183594 71.695312 C 102.050781 71.570312 101.984375 71.414062 101.984375 71.226562 Z M 102.144531 78.878906 L 102.144531 75.789062 L 103.207031 75.789062 L 103.207031 79.261719 C 103.160156 79.28125 103.09375 79.300781 103.007812 79.324219 C 102.917969 79.34375 102.820312 79.355469 102.714844 79.355469 C 102.53125 79.355469 102.386719 79.316406 102.289062 79.242188 C 102.195312 79.167969 102.144531 79.046875 102.144531 78.878906 Z M 103.207031 73.585938 L 103.207031 76.304688 L 102.144531 76.304688 L 102.144531 73.191406 C 102.1875 73.171875 102.257812 73.152344 102.347656 73.128906 C 102.441406 73.105469 102.542969 73.097656 102.648438 73.097656 C 102.835938 73.097656 102.972656 73.132812 103.066406 73.207031 C 103.160156 73.285156 103.207031 73.410156 103.207031 73.585938 Z M 107.460938 78.597656 C 107.832031 78.597656 108.136719 78.5625 108.382812 78.484375 C 108.625 78.410156 108.796875 78.339844 108.90625 78.269531 L 108.90625 76.34375 L 107.261719 76.519531 C 106.800781 76.554688 106.460938 76.65625 106.238281 76.824219 C 106.019531 76.992188 105.90625 77.234375 105.90625 77.550781 C 105.90625 77.878906 106.039062 78.136719 106.300781 78.320312 C 106.558594 78.507812 106.945312 78.597656 107.460938 78.597656 Z M 107.445312 72.992188 C 108.214844 72.992188 108.824219 73.164062 109.277344 73.507812 C 109.726562 73.851562 109.953125 74.394531 109.953125 75.136719 L 109.953125 78.28125 C 109.953125 78.476562 109.914062 78.625 109.839844 78.722656 C 109.765625 78.828125 109.652344 78.921875 109.5 79.011719 C 109.289062 79.125 109.007812 79.230469 108.652344 79.328125 C 108.300781 79.425781 107.902344 79.472656 107.460938 79.472656 C 106.628906 79.472656 105.984375 79.3125 105.53125 78.984375 C 105.074219 78.65625 104.847656 78.183594 104.847656 77.566406 C 104.847656 76.992188 105.039062 76.550781 105.425781 76.246094 C 105.808594 75.941406 106.339844 75.757812 107.023438 75.695312 L 108.90625 75.511719 L 108.90625 75.136719 C 108.90625 74.695312 108.773438 74.375 108.507812 74.171875 C 108.242188 73.96875 107.882812 73.867188 107.433594 73.867188 C 107.070312 73.867188 106.722656 73.917969 106.394531 74.023438 C 106.0625 74.132812 105.765625 74.25 105.511719 74.382812 C 105.441406 74.320312 105.375 74.246094 105.320312 74.164062 C 105.261719 74.078125 105.230469 73.992188 105.230469 73.90625 C 105.230469 73.675781 105.359375 73.5 105.617188 73.375 C 105.855469 73.25 106.132812 73.15625 106.445312 73.089844 C 106.757812 73.023438 107.09375 72.992188 107.445312 72.992188 Z M 111.996094 78.878906 L 111.996094 75.789062 L 113.054688 75.949219 L 113.054688 79.261719 C 113.011719 79.28125 112.945312 79.300781 112.855469 79.324219 C 112.769531 79.34375 112.671875 79.355469 112.566406 79.355469 C 112.378906 79.355469 112.238281 79.316406 112.140625 79.242188 C 112.042969 79.167969 111.996094 79.046875 111.996094 78.878906 Z M 113.054688 71.082031 L 113.054688 76.453125 L 111.996094 76.304688 L 111.996094 70.695312 C 112.039062 70.679688 112.109375 70.660156 112.203125 70.636719 C 112.292969 70.613281 112.386719 70.605469 112.484375 70.605469 C 112.679688 70.605469 112.824219 70.640625 112.917969 70.714844 C 113.007812 70.792969 113.054688 70.914062 113.054688 71.082031 Z M 119.472656 77.65625 C 119.472656 78.222656 119.265625 78.664062 118.851562 78.984375 C 118.433594 79.300781 117.832031 79.460938 117.046875 79.460938 C 116.375 79.460938 115.828125 79.355469 115.402344 79.148438 C 114.976562 78.941406 114.765625 78.714844 114.765625 78.46875 C 114.765625 78.359375 114.792969 78.257812 114.851562 78.152344 C 114.910156 78.054688 114.996094 77.972656 115.109375 77.910156 C 115.347656 78.078125 115.628906 78.234375 115.945312 78.375 C 116.265625 78.515625 116.625 78.585938 117.03125 78.585938 C 117.953125 78.585938 118.410156 78.277344 118.410156 77.65625 C 118.410156 77.402344 118.335938 77.191406 118.179688 77.027344 C 118.023438 76.863281 117.796875 76.746094 117.496094 76.675781 L 116.398438 76.386719 C 115.855469 76.253906 115.464844 76.046875 115.214844 75.765625 C 114.96875 75.488281 114.84375 75.144531 114.84375 74.726562 C 114.84375 74.257812 115.035156 73.851562 115.414062 73.507812 C 115.796875 73.164062 116.375 72.992188 117.152344 72.992188 C 117.566406 72.992188 117.929688 73.03125 118.238281 73.113281 C 118.550781 73.199219 118.789062 73.3125 118.960938 73.445312 C 119.132812 73.585938 119.222656 73.734375 119.222656 73.890625 C 119.222656 74.007812 119.191406 74.109375 119.132812 74.195312 C 119.078125 74.285156 119 74.351562 118.902344 74.394531 C 118.796875 74.324219 118.660156 74.246094 118.496094 74.164062 C 118.335938 74.078125 118.140625 74.007812 117.921875 73.949219 C 117.699219 73.894531 117.457031 73.867188 117.191406 73.867188 C 116.804688 73.867188 116.488281 73.941406 116.25 74.089844 C 116.011719 74.242188 115.894531 74.453125 115.894531 74.726562 C 115.894531 74.921875 115.960938 75.09375 116.097656 75.238281 C 116.234375 75.382812 116.453125 75.492188 116.753906 75.5625 L 117.667969 75.789062 C 118.269531 75.929688 118.722656 76.152344 119.023438 76.457031 C 119.324219 76.761719 119.472656 77.164062 119.472656 77.65625 Z M 119.472656 77.65625 "/>
</g>
</g>
</svg>
