<svg xmlns="http://www.w3.org/2000/svg" version="1.1" xmlns:xlink="http://www.w3.org/1999/xlink" xmlns:svgjs="http://svgjs.dev/svgjs" width="1500" height="1500" viewBox="0 0 1500 1500"><rect width="1500" height="1500" fill="#000000"></rect><g transform="matrix(0.6666666666666666,0,0,0.6666666666666666,250.16994382022466,650.5270516431925)"><svg viewBox="0 0 356 71" data-background-color="#06413d" preserveAspectRatio="xMidYMid meet" height="299" width="1500" xmlns="http://www.w3.org/2000/svg" xmlns:xlink="http://www.w3.org/1999/xlink"><g id="tight-bounds" transform="matrix(1,0,0,1,-0.06049999999996203,-0.0689999999999884)"><svg viewBox="0 0 356.12052 71.13770530271398" height="71.13770530271398" width="356.12052"><g><svg viewBox="0 0 356.12052 71.13770530271398" height="71.13770530271398" width="356.12052"><g><svg viewBox="0 0 356.12052 71.13770530271398" height="71.13770530271398" width="356.12052"><g><path d="M0 71.138v-71.138h356.121v71.138z" fill="#ffffff" stroke="transparent" stroke-width="0" rx="0%" data-fill-palette-color="tertiary"></path><path d="M3.283 67.854v-64.571h349.554v64.571z" fill="#000000" stroke="transparent" stroke-width="0" rx="0%" data-fill-palette-color="quaternary"></path><path d="M9.85 61.288v-51.438h336.421v51.438z" fill="#ffffff" stroke="transparent" stroke-width="0" data-fill-palette-color="tertiary"></path></g><g transform="matrix(1,0,0,1,19.69974,19.69974)" id="textblocktransform"><svg viewBox="0 0 316.72104 31.738225302713992" height="31.738225302713992" width="316.72104" id="textblock"><g><svg viewBox="0 0 316.72104 31.738225302713992" height="31.738225302713992" width="316.72104"><g transform="matrix(1,0,0,1,0,0)"><svg width="316.72104" viewBox="4.45 -32.9 335.27000000000004 33.6" height="31.738225302713992" data-palette-color="#06413d"><path d="M4.45-1.6L4.45-18.1 8.55-18.1 8.55-0.1Q8.25 0 7.75 0.13 7.25 0.25 6.65 0.25L6.65 0.25Q5.55 0.25 5-0.2 4.45-0.65 4.45-1.6L4.45-1.6ZM8.55-28.8L8.55-14.75 4.45-14.75 4.45-30.3Q4.7-30.4 5.23-30.53 5.75-30.65 6.35-30.65L6.35-30.65Q7.45-30.65 8-30.23 8.55-29.8 8.55-28.8L8.55-28.8ZM24.15-1.6L24.15-18.1 28.25-18.1 28.25-0.1Q27.95 0 27.45 0.13 26.95 0.25 26.35 0.25L26.35 0.25Q25.25 0.25 24.7-0.2 24.15-0.65 24.15-1.6L24.15-1.6ZM28.25-28.8L28.25-14.75 24.15-14.75 24.15-30.3Q24.4-30.4 24.93-30.53 25.45-30.65 26.05-30.65L26.05-30.65Q27.15-30.65 27.7-30.23 28.25-29.8 28.25-28.8L28.25-28.8ZM26.3-17.1L26.3-13.7 6.9-13.7 6.9-17.1 26.3-17.1ZM57.9-11.55L57.9-11.55 57.9-11.55Q57.9-7.85 56.5-5.1 55.1-2.35 52.55-0.85 50 0.65 46.55 0.65L46.55 0.65Q43.1 0.65 40.52-0.85 37.95-2.35 36.55-5.1 35.15-7.85 35.15-11.55L35.15-11.55Q35.15-15.3 36.57-18.03 38-20.75 40.57-22.25 43.15-23.75 46.55-23.75L46.55-23.75Q49.95-23.75 52.5-22.25 55.05-20.75 56.47-18.03 57.9-15.3 57.9-11.55ZM46.55-20.45L46.55-20.45 46.55-20.45Q43.2-20.45 41.22-18.07 39.25-15.7 39.25-11.55L39.25-11.55Q39.25-7.35 41.17-5 43.1-2.65 46.55-2.65L46.55-2.65Q49.95-2.65 51.87-5.03 53.8-7.4 53.8-11.55L53.8-11.55Q53.8-15.7 51.87-18.07 49.95-20.45 46.55-20.45ZM82.75-16L82.75-16 82.75-10.25 78.75-10.25 78.75-15.7Q78.75-18.15 77.32-19.3 75.9-20.45 73.55-20.45L73.55-20.45Q72-20.45 70.55-19.95 69.1-19.45 68.1-18.8L68.1-18.8 68.1-10.25 64.1-10.25 64.1-18.6Q64.1-19.6 64.52-20.3 64.95-21 66-21.65L66-21.65Q67.35-22.5 69.42-23.13 71.5-23.75 73.6-23.75L73.6-23.75Q76.15-23.75 78.1-22.98 80.05-22.2 81-20.85L81-20.85Q81.3-20.55 81.5-20.3 81.7-20.05 81.9-19.65L81.9-19.65Q82.25-19.05 82.5-18.1 82.75-17.15 82.75-16ZM97.4-15.9L97.4-15.9 97.4-10.25 93.4-10.25 93.4-15.7Q93.4-18.15 92-19.3 90.6-20.45 88.25-20.45L88.25-20.45Q86.5-20.45 84.87-19.73 83.25-19 81.95-17.65L81.95-17.65 80.35-20.55Q81.65-21.85 83.75-22.8 85.85-23.75 88.55-23.75L88.55-23.75Q91.25-23.75 93.22-22.9 95.2-22.05 96.3-20.3 97.4-18.55 97.4-15.9ZM64.1-1.55L64.1-12.9 68.1-12.9 68.1-0.1Q67.85 0 67.35 0.13 66.85 0.25 66.25 0.25L66.25 0.25Q65.2 0.25 64.65-0.18 64.1-0.6 64.1-1.55L64.1-1.55ZM78.75-1.55L78.75-12.9 82.75-12.9 82.75-0.1Q82.5 0 81.97 0.13 81.45 0.25 80.9 0.25L80.9 0.25Q79.8 0.25 79.27-0.18 78.75-0.6 78.75-1.55L78.75-1.55ZM93.4-1.55L93.4-12.9 97.4-12.9 97.4-0.1Q97.15 0 96.62 0.13 96.1 0.25 95.55 0.25L95.55 0.25Q94.45 0.25 93.92-0.18 93.4-0.6 93.4-1.55L93.4-1.55ZM123.14-11.35L106.34-9 106.14-12.15 121.24-14.2Q121.04-16.95 119.34-18.73 117.64-20.5 114.64-20.5L114.64-20.5Q111.54-20.5 109.52-18.28 107.49-16.05 107.49-11.9L107.49-11.9 107.49-10.8Q107.84-6.8 110.12-4.73 112.39-2.65 116.34-2.65L116.34-2.65Q118.44-2.65 120.14-3.35 121.84-4.05 122.84-4.85L122.84-4.85Q123.39-4.5 123.72-4.03 124.04-3.55 124.04-2.95L124.04-2.95Q124.04-2 122.97-1.18 121.89-0.35 120.12 0.15 118.34 0.65 116.14 0.65L116.14 0.65Q112.29 0.65 109.47-0.75 106.64-2.15 105.12-4.93 103.59-7.7 103.59-11.7L103.59-11.7Q103.59-14.55 104.42-16.78 105.24-19 106.72-20.55 108.19-22.1 110.24-22.93 112.29-23.75 114.69-23.75L114.69-23.75Q117.74-23.75 120.07-22.45 122.39-21.15 123.72-18.82 125.04-16.5 125.04-13.5L125.04-13.5Q125.04-12.4 124.54-11.93 124.04-11.45 123.14-11.35L123.14-11.35ZM131.54-2.2L131.54-18.3 135.59-18.3 135.59-0.4Q135.39-0.35 134.84-0.18 134.29 0 133.74 0L133.74 0Q132.74 0 132.14-0.63 131.54-1.25 131.54-2.2L131.54-2.2ZM135.59-30L135.59-12.4 131.54-12.45 131.54-28.2Q131.54-29.2 132.14-29.8 132.74-30.4 133.74-30.4L133.74-30.4Q134.29-30.4 134.84-30.25 135.39-30.1 135.59-30L135.59-30ZM147.69-13.9L133.74-13.9 133.74-17.3 148.79-17.3Q148.94-17.1 149.09-16.65 149.24-16.2 149.24-15.7L149.24-15.7Q149.24-14.9 148.84-14.4 148.44-13.9 147.69-13.9L147.69-13.9ZM149.49 0L133.74 0 133.74-3.4 150.59-3.4Q150.74-3.2 150.89-2.78 151.04-2.35 151.04-1.8L151.04-1.8Q151.04-1 150.64-0.5 150.24 0 149.49 0L149.49 0ZM149.24-26.95L133.74-26.95 133.74-30.4 150.34-30.4Q150.49-30.2 150.64-29.75 150.79-29.3 150.79-28.8L150.79-28.8Q150.79-28 150.39-27.48 149.99-26.95 149.24-26.95L149.24-26.95ZM173.69-6.15L173.69-6.15 173.69-6.15Q173.69-2.95 171.34-1.15 168.99 0.65 164.54 0.65L164.54 0.65Q160.74 0.65 158.34-0.53 155.94-1.7 155.94-3.1L155.94-3.1Q155.94-3.7 156.26-4.28 156.59-4.85 157.24-5.2L157.24-5.2Q158.59-4.25 160.39-3.45 162.19-2.65 164.49-2.65L164.49-2.65Q169.69-2.65 169.69-6.15L169.69-6.15Q169.69-7.6 168.81-8.53 167.94-9.45 166.24-9.85L166.24-9.85 162.09-10.95Q159.04-11.7 157.64-13.28 156.24-14.85 156.24-17.2L156.24-17.2Q156.24-19.85 158.39-21.8 160.54-23.75 164.94-23.75L164.94-23.75Q167.29-23.75 169.04-23.28 170.79-22.8 171.76-22.03 172.74-21.25 172.74-20.35L172.74-20.35Q172.74-19.7 172.41-19.2 172.09-18.7 171.54-18.45L171.54-18.45Q170.94-18.85 170.01-19.33 169.09-19.8 167.84-20.13 166.59-20.45 165.09-20.45L165.09-20.45Q162.89-20.45 161.54-19.6 160.19-18.75 160.19-17.2L160.19-17.2Q160.19-16.1 160.96-15.28 161.74-14.45 163.44-14.05L163.44-14.05 166.89-13.2Q170.29-12.4 171.99-10.68 173.69-8.95 173.69-6.15ZM196.04-6.15L196.04-6.15 196.04-6.15Q196.04-2.95 193.69-1.15 191.34 0.65 186.89 0.65L186.89 0.65Q183.09 0.65 180.69-0.53 178.29-1.7 178.29-3.1L178.29-3.1Q178.29-3.7 178.61-4.28 178.94-4.85 179.59-5.2L179.59-5.2Q180.94-4.25 182.74-3.45 184.54-2.65 186.84-2.65L186.84-2.65Q192.04-2.65 192.04-6.15L192.04-6.15Q192.04-7.6 191.16-8.53 190.29-9.45 188.59-9.85L188.59-9.85 184.44-10.95Q181.39-11.7 179.99-13.28 178.59-14.85 178.59-17.2L178.59-17.2Q178.59-19.85 180.74-21.8 182.89-23.75 187.29-23.75L187.29-23.75Q189.64-23.75 191.39-23.28 193.14-22.8 194.11-22.03 195.09-21.25 195.09-20.35L195.09-20.35Q195.09-19.7 194.76-19.2 194.44-18.7 193.89-18.45L193.89-18.45Q193.29-18.85 192.36-19.33 191.44-19.8 190.19-20.13 188.94-20.45 187.44-20.45L187.44-20.45Q185.24-20.45 183.89-19.6 182.54-18.75 182.54-17.2L182.54-17.2Q182.54-16.1 183.31-15.28 184.09-14.45 185.79-14.05L185.79-14.05 189.24-13.2Q192.64-12.4 194.34-10.68 196.04-8.95 196.04-6.15ZM220.33-11.35L203.53-9 203.33-12.15 218.43-14.2Q218.23-16.95 216.53-18.73 214.83-20.5 211.83-20.5L211.83-20.5Q208.73-20.5 206.71-18.28 204.68-16.05 204.68-11.9L204.68-11.9 204.68-10.8Q205.03-6.8 207.31-4.73 209.58-2.65 213.53-2.65L213.53-2.65Q215.63-2.65 217.33-3.35 219.03-4.05 220.03-4.85L220.03-4.85Q220.58-4.5 220.91-4.03 221.23-3.55 221.23-2.95L221.23-2.95Q221.23-2 220.16-1.18 219.08-0.35 217.31 0.15 215.53 0.65 213.33 0.65L213.33 0.65Q209.48 0.65 206.66-0.75 203.83-2.15 202.31-4.93 200.78-7.7 200.78-11.7L200.78-11.7Q200.78-14.55 201.61-16.78 202.43-19 203.91-20.55 205.38-22.1 207.43-22.93 209.48-23.75 211.88-23.75L211.88-23.75Q214.93-23.75 217.26-22.45 219.58-21.15 220.91-18.82 222.23-16.5 222.23-13.5L222.23-13.5Q222.23-12.4 221.73-11.93 221.23-11.45 220.33-11.35L220.33-11.35ZM248.03-15.25L248.03-15.25 248.03-10.15 244.03-10.15 244.03-15.05Q244.03-17.85 242.46-19.15 240.88-20.45 238.23-20.45L238.23-20.45Q236.23-20.45 234.68-19.95 233.13-19.45 232.03-18.8L232.03-18.8 232.03-10.15 228.03-10.15 228.03-18.6Q228.03-19.65 228.46-20.33 228.88-21 229.93-21.65L229.93-21.65Q231.23-22.4 233.38-23.08 235.53-23.75 238.23-23.75L238.23-23.75Q242.78-23.75 245.41-21.68 248.03-19.6 248.03-15.25ZM228.03-1.55L228.03-12.9 232.03-12.9 232.03-0.1Q231.78 0 231.28 0.13 230.78 0.25 230.18 0.25L230.18 0.25Q229.13 0.25 228.58-0.18 228.03-0.6 228.03-1.55L228.03-1.55ZM244.03-1.55L244.03-12.9 248.03-12.9 248.03-0.1Q247.78 0 247.26 0.13 246.73 0.25 246.18 0.25L246.18 0.25Q245.08 0.25 244.56-0.18 244.03-0.6 244.03-1.55L244.03-1.55ZM255.58-6.05L255.58-13.2 259.58-13.2 259.58-6.3Q259.58-4.3 260.73-3.48 261.88-2.65 263.88-2.65L263.88-2.65Q264.73-2.65 265.78-2.95 266.83-3.25 267.53-3.65L267.53-3.65Q267.83-3.35 268.08-2.9 268.33-2.45 268.33-1.85L268.33-1.85Q268.33-0.75 267.03-0.05 265.73 0.65 263.43 0.65L263.43 0.65Q259.93 0.65 257.75-0.9 255.58-2.45 255.58-6.05L255.58-6.05ZM266.73-19.3L257.63-19.3 257.63-22.6 267.78-22.6Q267.93-22.4 268.08-21.95 268.23-21.5 268.23-21L268.23-21Q268.23-20.2 267.83-19.75 267.43-19.3 266.73-19.3L266.73-19.3ZM259.58-28.35L259.58-11.7 255.58-11.7 255.58-29.8Q255.83-29.9 256.35-30.03 256.88-30.15 257.48-30.15L257.48-30.15Q258.53-30.15 259.05-29.73 259.58-29.3 259.58-28.35L259.58-28.35ZM273.78-30.4L273.78-30.4 273.78-30.4Q273.78-31.45 274.53-32.18 275.28-32.9 276.38-32.9L276.38-32.9Q277.53-32.9 278.23-32.18 278.93-31.45 278.93-30.4L278.93-30.4Q278.93-29.35 278.23-28.63 277.53-27.9 276.38-27.9L276.38-27.9Q275.28-27.9 274.53-28.63 273.78-29.35 273.78-30.4ZM274.38-1.55L274.38-13.2 278.38-13.2 278.38-0.1Q278.13 0 277.63 0.13 277.13 0.25 276.53 0.25L276.53 0.25Q275.48 0.25 274.93-0.18 274.38-0.6 274.38-1.55L274.38-1.55ZM278.38-21.5L278.38-11.25 274.38-11.25 274.38-23Q274.63-23.1 275.15-23.23 275.68-23.35 276.28-23.35L276.28-23.35Q277.33-23.35 277.85-22.93 278.38-22.5 278.38-21.5L278.38-21.5ZM294.42-2.6L294.42-2.6 294.42-2.6Q296.52-2.6 297.9-3.03 299.27-3.45 299.87-3.85L299.87-3.85 299.87-11.1 293.67-10.45Q291.07-10.25 289.82-9.3 288.57-8.35 288.57-6.55L288.57-6.55Q288.57-4.7 290.05-3.65 291.52-2.6 294.42-2.6ZM294.37-23.75L294.37-23.75 294.37-23.75Q298.72-23.75 301.27-21.8 303.82-19.85 303.82-15.65L303.82-15.65 303.82-3.8Q303.82-2.7 303.4-2.13 302.97-1.55 302.12-1.05L302.12-1.05Q300.92-0.4 298.92 0.15 296.92 0.7 294.42 0.7L294.42 0.7Q289.72 0.7 287.15-1.15 284.57-3 284.57-6.5L284.57-6.5Q284.57-9.75 286.75-11.48 288.92-13.2 292.77-13.55L292.77-13.55 299.87-14.25 299.87-15.65Q299.87-18.15 298.37-19.3 296.87-20.45 294.32-20.45L294.32-20.45Q292.27-20.45 290.4-19.85 288.52-19.25 287.07-18.5L287.07-18.5Q286.67-18.85 286.35-19.33 286.02-19.8 286.02-20.3L286.02-20.3Q286.02-21.6 287.47-22.3L287.47-22.3Q288.82-23 290.6-23.38 292.37-23.75 294.37-23.75ZM311.52-1.55L311.52-13.2 315.52-12.6 315.52-0.1Q315.27 0 314.77 0.13 314.27 0.25 313.67 0.25L313.67 0.25Q312.62 0.25 312.07-0.18 311.52-0.6 311.52-1.55L311.52-1.55ZM315.52-30.95L315.52-10.7 311.52-11.25 311.52-32.4Q311.77-32.5 312.3-32.63 312.82-32.75 313.37-32.75L313.37-32.75Q314.47-32.75 315-32.33 315.52-31.9 315.52-30.95L315.52-30.95ZM339.72-6.15L339.72-6.15 339.72-6.15Q339.72-2.95 337.37-1.15 335.02 0.65 330.57 0.65L330.57 0.65Q326.77 0.65 324.37-0.53 321.97-1.7 321.97-3.1L321.97-3.1Q321.97-3.7 322.29-4.28 322.62-4.85 323.27-5.2L323.27-5.2Q324.62-4.25 326.42-3.45 328.22-2.65 330.52-2.65L330.52-2.65Q335.72-2.65 335.72-6.15L335.72-6.15Q335.72-7.6 334.84-8.53 333.97-9.45 332.27-9.85L332.27-9.85 328.12-10.95Q325.07-11.7 323.67-13.28 322.27-14.85 322.27-17.2L322.27-17.2Q322.27-19.85 324.42-21.8 326.57-23.75 330.97-23.75L330.97-23.75Q333.32-23.75 335.07-23.28 336.82-22.8 337.79-22.03 338.77-21.25 338.77-20.35L338.77-20.35Q338.77-19.7 338.44-19.2 338.12-18.7 337.57-18.45L337.57-18.45Q336.97-18.85 336.04-19.33 335.12-19.8 333.87-20.13 332.62-20.45 331.12-20.45L331.12-20.45Q328.92-20.45 327.57-19.6 326.22-18.75 326.22-17.2L326.22-17.2Q326.22-16.1 326.99-15.28 327.77-14.45 329.47-14.05L329.47-14.05 332.92-13.2Q336.32-12.4 338.02-10.68 339.72-8.95 339.72-6.15Z" opacity="1" transform="matrix(1,0,0,1,0,0)" fill="#000000" class="wordmark-text-0" data-fill-palette-color="quaternary" id="text-0"></path></svg></g></svg></g></svg></g></svg></g><g></g></svg></g><defs></defs></svg><rect width="356.12052" height="71.13770530271398" fill="none" stroke="none" visibility="hidden"></rect></g></svg></g></svg>