<svg xmlns="http://www.w3.org/2000/svg" version="1.1" xmlns:xlink="http://www.w3.org/1999/xlink" xmlns:svgjs="http://svgjs.dev/svgjs" width="1500" height="553" viewBox="0 0 1500 553"><g transform="matrix(1,0,0,1,-0.9085818934761392,0.8215627887059895)"><svg viewBox="0 0 396 146" data-background-color="#f8f8f8" preserveAspectRatio="xMidYMid meet" height="553" width="1500" xmlns="http://www.w3.org/2000/svg" xmlns:xlink="http://www.w3.org/1999/xlink"><g id="tight-bounds" transform="matrix(1,0,0,1,0.24013438012229926,-0.21690446139434982)"><svg viewBox="0 0 395.52 146.4332103202769" height="146.4332103202769" width="395.52"><g><svg viewBox="0 0 395.52 146.4332103202769" height="146.4332103202769" width="395.52"><g transform="matrix(1,0,0,1,0,96.25696732851898)"><svg viewBox="0 0 395.52 50.17624299175794" height="50.17624299175794" width="395.52"><g id="textblocktransform"><svg viewBox="0 0 395.52 50.17624299175794" height="50.17624299175794" width="395.52" id="textblock"><g><svg viewBox="0 0 395.52 50.17624299175794" height="50.17624299175794" width="395.52"><g transform="matrix(1,0,0,1,0,0)"><svg width="395.52" viewBox="1.4402200000000005 -29.564420000000002 323.7621699999999 41.07292999999999" height="50.17624299175794" data-palette-color="#61777f"><path d="M5.503-20.233l3.647 31.268-4.062 0.474-3.648-31.268zM24.385-22.436l3.647 31.268-4.052 0.473-3.648-31.268zM5.731-3.175l-0.4-3.427 18.177-2.12 0.399 3.427zM44.235 7.939v0c-3.432 0.322-6.124-0.362-8.078-2.054-1.947-1.692-3.084-4.277-3.41-7.755v0l-0.344-3.653c-0.326-3.465 0.317-6.207 1.929-8.227 1.605-2.012 4.117-3.179 7.536-3.5v0c3.432-0.322 6.12 0.356 8.066 2.034 1.953 1.685 3.092 4.259 3.417 7.724v0l0.344 3.654c0.327 3.478-0.312 6.23-1.917 8.256-1.598 2.025-4.112 3.199-7.543 3.521zM43.93 4.693v0c2.124-0.2 3.678-0.978 4.662-2.336 0.99-1.365 1.374-3.233 1.151-5.602v0l-0.385-4.092c-0.221-2.356-0.945-4.11-2.171-5.26-1.219-1.144-2.891-1.617-5.015-1.417v0c-2.111 0.198-3.662 0.973-4.653 2.325-0.997 1.359-1.385 3.217-1.164 5.573v0l0.385 4.092c0.223 2.37 0.951 4.133 2.184 5.289 1.226 1.15 2.895 1.626 5.006 1.428zM93.819 3.614l-3.98 0.276-1.041-15.014c-0.088-1.264-0.323-2.347-0.706-3.249-0.383-0.902-0.958-1.581-1.725-2.035-0.76-0.462-1.756-0.65-2.987-0.565v0c-1.164 0.081-2.155 0.39-2.972 0.928-0.819 0.531-1.463 1.214-1.933 2.048-0.471 0.828-0.777 1.758-0.92 2.79v0l-0.815-2.79 0.499-0.034c0.188-1.049 0.564-2.037 1.128-2.966 0.557-0.927 1.349-1.697 2.376-2.309 1.033-0.613 2.335-0.974 3.904-1.083v0c1.789-0.124 3.25 0.129 4.383 0.759 1.14 0.629 2.009 1.602 2.608 2.916 0.606 1.315 0.976 2.94 1.11 4.875v0zM63.861 5.691l-3.98 0.276-1.663-23.982 3.981-0.276 0.228 5.758 0.187 0.237zM78.825 4.654l-3.95 0.274-1.041-15.014c-0.088-1.264-0.323-2.347-0.706-3.249-0.383-0.902-0.955-1.581-1.715-2.037-0.754-0.462-1.746-0.651-2.977-0.565v0c-1.177 0.082-2.175 0.391-2.993 0.929-0.819 0.531-1.462 1.221-1.931 2.069-0.469 0.848-0.774 1.795-0.916 2.84v0l-0.934-2.772 0.888-0.062c0.171-1.101 0.528-2.118 1.072-3.051 0.543-0.933 1.315-1.702 2.316-2.306 1.007-0.604 2.256-0.958 3.745-1.062v0c2.208-0.153 3.93 0.302 5.167 1.366 1.237 1.07 2.078 2.693 2.523 4.868v0c0.102 0.32 0.184 0.672 0.243 1.055 0.06 0.383 0.103 0.761 0.129 1.134v0zM109.803 3.478v0c-3.656 0.16-6.453-0.611-8.389-2.315-1.93-1.71-2.968-4.231-3.115-7.561v0l-0.187-4.276c-0.148-3.383 0.6-6.025 2.245-7.926 1.638-1.907 4.115-2.933 7.432-3.078v0c2.231-0.098 4.111 0.233 5.639 0.993 1.528 0.767 2.706 1.897 3.532 3.389 0.82 1.492 1.276 3.297 1.368 5.415v0l0.039 0.879c0.023 0.526 0.026 1.053 0.009 1.581-0.017 0.528-0.048 1.046-0.092 1.556v0l-3.666 0.161c-0.001-0.787-0.014-1.534-0.038-2.241-0.024-0.706-0.049-1.356-0.076-1.948v0c-0.064-1.459-0.351-2.681-0.861-3.666-0.511-0.992-1.244-1.734-2.2-2.226-0.949-0.492-2.12-0.708-3.512-0.647v0c-2.065 0.091-3.59 0.758-4.576 2.003-0.98 1.244-1.421 2.982-1.323 5.213v0l0.1 2.288 0.052 0.488 0.1 2.288c0.044 0.999 0.23 1.895 0.558 2.688 0.328 0.793 0.822 1.465 1.48 2.017 0.658 0.558 1.484 0.966 2.476 1.223 0.986 0.264 2.151 0.366 3.497 0.307v0c1.558-0.068 3.001-0.339 4.329-0.811 1.328-0.465 2.565-1.077 3.713-1.834v0l-0.219 3.463c-1.036 0.713-2.248 1.303-3.636 1.771-1.394 0.462-2.954 0.73-4.679 0.805zM117.445-7.828l-17.083 0.749-0.132-2.997 17.084-0.749zM128.563 2.297l-4.039 0.102-0.797-31.47 4.038-0.102zM144.148 1.902l-18.414 0.466-0.087-3.419 18.414-0.466zM143.264-12.441l-16.794 0.426-0.086-3.399 16.794-0.425zM143.287-26.146l-18.294 0.464-0.087-3.419 18.294-0.463zM157.096 2.378v0c-1.933 0.012-3.625-0.188-5.073-0.599-1.449-0.404-2.652-0.85-3.609-1.338v0l-0.393-3.697c1.204 0.619 2.527 1.154 3.97 1.605 1.436 0.451 3.068 0.671 4.894 0.66v0c1.853-0.011 3.245-0.317 4.175-0.916 0.936-0.599 1.401-1.482 1.394-2.648v0l-0.002-0.27c-0.005-0.753-0.185-1.376-0.542-1.867-0.356-0.491-0.996-0.921-1.918-1.288-0.922-0.374-2.231-0.746-3.927-1.116v0c-2.023-0.428-3.619-0.938-4.789-1.53-1.164-0.593-2.002-1.331-2.514-2.215-0.505-0.884-0.762-1.965-0.77-3.245v0l-0.001-0.22c-0.013-2.107 0.71-3.704 2.17-4.794 1.453-1.096 3.65-1.653 6.59-1.671v0c1.887-0.012 3.525 0.192 4.914 0.61 1.389 0.418 2.529 0.888 3.418 1.409v0l0.391 3.378c-1.071-0.62-2.297-1.132-3.679-1.538-1.382-0.398-2.934-0.592-4.654-0.581v0c-1.253 0.008-2.263 0.141-3.027 0.399-0.772 0.258-1.33 0.622-1.674 1.09-0.344 0.475-0.514 1.04-0.509 1.693v0l0.001 0.2c0.004 0.72 0.182 1.329 0.531 1.827 0.35 0.498 0.972 0.931 1.868 1.299 0.896 0.361 2.141 0.71 3.737 1.047v0c2.056 0.401 3.689 0.884 4.899 1.449 1.21 0.566 2.081 1.287 2.613 2.164 0.532 0.877 0.802 2.005 0.811 3.385v0l0.003 0.41c0.014 2.267-0.762 3.981-2.328 5.145-1.573 1.156-3.896 1.744-6.97 1.763zM178.467 2.447v0c-1.933-0.02-3.621-0.247-5.063-0.682-1.442-0.428-2.638-0.894-3.586-1.397v0l-0.332-3.703c1.194 0.639 2.508 1.196 3.943 1.67 1.429 0.475 3.056 0.721 4.882 0.74v0c1.853 0.019 3.25-0.263 4.189-0.847 0.946-0.584 1.425-1.459 1.437-2.625v0l0.003-0.27c0.008-0.753-0.163-1.378-0.511-1.875-0.348-0.497-0.98-0.937-1.896-1.32-0.916-0.389-2.219-0.783-3.908-1.18v0c-2.015-0.461-3.603-0.997-4.764-1.609-1.154-0.612-1.979-1.364-2.477-2.256-0.491-0.892-0.73-1.978-0.717-3.257v0l0.002-0.22c0.022-2.107 0.771-3.692 2.249-4.757 1.471-1.072 3.677-1.592 6.617-1.562v0c1.887 0.019 3.521 0.249 4.903 0.69 1.382 0.441 2.514 0.929 3.395 1.465v0l0.335 3.383c-1.06-0.638-2.278-1.17-3.653-1.597-1.376-0.421-2.924-0.64-4.644-0.658v0c-1.253-0.013-2.265 0.103-3.034 0.349-0.776 0.245-1.34 0.6-1.691 1.063-0.351 0.47-0.531 1.031-0.537 1.684v0l-0.002 0.2c-0.007 0.72 0.16 1.332 0.501 1.836 0.342 0.504 0.957 0.947 1.847 1.329 0.89 0.376 2.129 0.745 3.718 1.108v0c2.049 0.434 3.674 0.944 4.875 1.53 1.201 0.586 2.06 1.321 2.578 2.206 0.518 0.885 0.769 2.018 0.755 3.398v0l-0.004 0.41c-0.023 2.267-0.827 3.968-2.413 5.106-1.592 1.13-3.924 1.68-6.997 1.648zM202.511 2.949v0c-3.659-0.101-6.393-1.069-8.204-2.906-1.803-1.844-2.659-4.431-2.567-7.764v0l0.117-4.278c0.093-3.385 1.028-5.967 2.804-7.746 1.77-1.785 4.314-2.632 7.633-2.541v0c2.232 0.061 4.084 0.526 5.554 1.393 1.47 0.874 2.564 2.085 3.281 3.631 0.711 1.547 1.038 3.38 0.98 5.499v0l-0.025 0.88c-0.014 0.526-0.049 1.052-0.103 1.578-0.054 0.525-0.122 1.04-0.203 1.545v0l-3.668-0.101c0.055-0.785 0.095-1.531 0.121-2.238 0.026-0.706 0.047-1.356 0.064-1.949v0c0.04-1.459-0.159-2.699-0.598-3.717-0.439-1.026-1.117-1.818-2.036-2.377-0.912-0.559-2.064-0.857-3.456-0.896v0c-2.066-0.057-3.635 0.5-4.708 1.672-1.066 1.171-1.63 2.873-1.691 5.105v0l-0.063 2.289 0.017 0.491-0.063 2.289c-0.027 1 0.094 1.907 0.365 2.721 0.271 0.814 0.715 1.52 1.332 2.118 0.617 0.604 1.411 1.069 2.383 1.396 0.965 0.333 2.12 0.518 3.466 0.555v0c1.559 0.043 3.018-0.124 4.375-0.5 1.357-0.37 2.635-0.891 3.835-1.565v0l-0.465 3.438c-1.085 0.637-2.336 1.14-3.753 1.508-1.424 0.361-2.999 0.518-4.724 0.47zM210.939-7.783l-17.094-0.47 0.083-2.999 17.093 0.47zM236.858 3.828l-3.986-0.184 0.69-14.934c0.06-1.299-0.065-2.422-0.375-3.371-0.31-0.955-0.852-1.708-1.627-2.258-0.768-0.556-1.842-0.866-3.221-0.929v0c-1.265-0.058-2.372 0.131-3.32 0.567-0.948 0.43-1.726 1.038-2.336 1.824-0.617 0.786-1.062 1.689-1.337 2.711v0l-0.578-2.859 0.859 0.039c0.31-1.074 0.815-2.041 1.515-2.903 0.694-0.862 1.606-1.534 2.736-2.016 1.137-0.481 2.508-0.685 4.113-0.611v0c1.905 0.088 3.426 0.519 4.565 1.292 1.139 0.773 1.947 1.852 2.423 3.236 0.484 1.377 0.68 3.048 0.59 5.012v0zM220.785 3.085l-3.986-0.184 1.11-24.014 3.985 0.184-0.435 5.746 0.16 0.228zM251.418 5.279v0c-1.856-0.121-3.331-0.495-4.426-1.121-1.094-0.633-1.857-1.531-2.289-2.695-0.432-1.164-0.592-2.591-0.482-4.28v0l0.99-15.138 3.932 0.257-0.959 14.669c-0.103 1.577 0.18 2.761 0.85 3.553 0.67 0.792 1.859 1.244 3.569 1.355v0c0.965 0.063 1.9 0.017 2.805-0.137 0.905-0.155 1.767-0.402 2.584-0.743v0l-0.593 3.389c-0.797 0.342-1.719 0.596-2.765 0.761-1.046 0.159-2.118 0.202-3.216 0.13zM258.435-15.287l-17.283-1.13 0.21-3.203 17.652 1.154zM249.109-18.712l-3.812-0.25 0.421-6.737 4.035-0.257zM266.099 5.832l-3.979-0.3 1.805-23.972 3.979 0.3zM266.205-22.22v0c-0.818-0.062-1.41-0.323-1.776-0.785-0.372-0.469-0.53-1.08-0.473-1.831v0l0.009-0.12c0.058-0.771 0.306-1.354 0.743-1.749 0.431-0.395 1.055-0.562 1.873-0.5v0c0.818 0.062 1.417 0.321 1.797 0.777 0.373 0.456 0.531 1.07 0.473 1.84v0l-0.009 0.12c-0.058 0.771-0.306 1.354-0.744 1.749-0.444 0.394-1.075 0.561-1.893 0.499zM290.664 8l-3.955-0.353 0.698-5.801-0.095-0.62 0.68-7.63 0.145-1.403c0.173-1.946-0.193-3.427-1.1-4.445-0.906-1.024-2.428-1.632-4.566-1.823v0c-1.72-0.153-3.319-0.048-4.797 0.316-1.471 0.364-2.794 0.825-3.968 1.383v0l0.67-3.354c0.658-0.323 1.431-0.629 2.321-0.918 0.896-0.295 1.907-0.516 3.031-0.663 1.124-0.147 2.35-0.162 3.678-0.044v0c1.713 0.153 3.152 0.492 4.317 1.018 1.165 0.525 2.084 1.213 2.758 2.063 0.674 0.85 1.134 1.848 1.379 2.994 0.246 1.14 0.308 2.397 0.186 3.771v0zM278.426 7.431v0c-2.371-0.211-4.139-0.951-5.304-2.22-1.165-1.268-1.653-2.972-1.462-5.11v0l0.064-0.717c0.197-2.205 1.024-3.791 2.482-4.758 1.465-0.967 3.704-1.531 6.717-1.69v0l7.685-0.4-0.038 2.908-7.405 0.405c-1.856 0.102-3.205 0.434-4.044 0.994-0.846 0.554-1.324 1.445-1.433 2.674v0l-0.036 0.398c-0.112 1.255 0.191 2.252 0.908 2.993 0.717 0.74 1.853 1.179 3.407 1.317v0c1.375 0.123 2.574-0.008 3.599-0.392 1.025-0.391 1.876-0.957 2.551-1.7 0.676-0.75 1.164-1.606 1.464-2.57v0l0.376 2.754-0.766-0.068c-0.319 1.029-0.834 1.964-1.546 2.804-0.711 0.847-1.656 1.492-2.833 1.936-1.178 0.451-2.64 0.598-4.386 0.442zM300.656 9.026l-3.949-0.402 3.307-32.472 3.949 0.402zM314.475 11.15v0c-1.921-0.222-3.575-0.625-4.964-1.208-1.39-0.577-2.53-1.165-3.42-1.765v0l0.057-3.718c1.12 0.76 2.369 1.452 3.747 2.075 1.371 0.622 2.964 1.037 4.778 1.247v0c1.841 0.213 3.259 0.078 4.255-0.404 1.002-0.481 1.57-1.302 1.704-2.461v0l0.031-0.268c0.087-0.748-0.017-1.388-0.312-1.918-0.294-0.531-0.877-1.034-1.748-1.511-0.87-0.483-2.125-1.011-3.763-1.583v0c-1.956-0.669-3.479-1.369-4.569-2.099-1.083-0.729-1.826-1.563-2.227-2.502-0.395-0.938-0.519-2.043-0.372-3.315v0l0.025-0.218c0.242-2.093 1.154-3.591 2.735-4.496 1.575-0.912 3.823-1.199 6.743-0.861v0c1.874 0.217 3.475 0.617 4.804 1.2 1.328 0.583 2.403 1.187 3.223 1.812v0l-0.02 3.4c-0.988-0.745-2.143-1.402-3.467-1.971-1.324-0.563-2.841-0.943-4.549-1.14v0c-1.245-0.144-2.263-0.134-3.054 0.029-0.797 0.163-1.395 0.456-1.793 0.88-0.399 0.43-0.636 0.97-0.71 1.619v0l-0.023 0.199c-0.083 0.715 0.019 1.341 0.306 1.877 0.287 0.537 0.853 1.042 1.697 1.515 0.845 0.467 2.039 0.964 3.583 1.492v0c1.992 0.646 3.555 1.324 4.687 2.032 1.133 0.708 1.91 1.53 2.333 2.464 0.422 0.935 0.554 2.087 0.395 3.458v0l-0.047 0.408c-0.26 2.252-1.238 3.86-2.934 4.825-1.701 0.958-4.078 1.26-7.131 0.906z" opacity="1" transform="matrix(1,0,0,1,0,0)" fill="#61777f" class="wordmark-text-0" data-fill-palette-color="primary" id="text-0"></path></svg></g></svg></g></svg></g></svg></g><g transform="matrix(1,0,0,1,154.96336635548317,0)"><svg viewBox="0 0 85.5932672890336 81.18516116066434" height="81.18516116066434" width="85.5932672890336"><g><svg xmlns="http://www.w3.org/2000/svg" xmlns:xlink="http://www.w3.org/1999/xlink" version="1.1" x="0" y="0" viewBox="0 1.353 89.863 85.235" enable-background="new 0 0 90 90" xml:space="preserve" height="81.18516116066434" width="85.5932672890336" class="icon-icon-0" data-fill-palette-color="accent" id="icon-0"><g fill="#c8c8c8" data-fill-palette-color="accent"><polygon fill-rule="evenodd" clip-rule="evenodd" points="75.039,82.882 58.363,82.882 58.363,56.941 32.422,56.941 32.422,82.882    15.745,82.882 15.745,45.823 12.039,45.823 12.039,86.588 36.128,86.588 36.128,60.647 54.657,60.647 54.657,86.588 78.745,86.588    78.745,45.823 75.039,45.823  " fill="#c8c8c8" data-fill-palette-color="accent"></polygon><polygon fill-rule="evenodd" clip-rule="evenodd" points="48.424,4.027 48.478,3.973 45.858,1.353 28.716,18.495 28.716,5.059    25.01,5.059 25.01,22.201 0,47.211 2.62,49.831 45.804,6.648 87.242,49.831 89.863,47.211  " fill="#c8c8c8" data-fill-palette-color="accent"></polygon></g></svg></g></svg></g><g></g></svg></g><defs></defs></svg><rect width="395.52" height="146.4332103202769" fill="none" stroke="none" visibility="hidden"></rect></g></svg></g></svg>